<?xml version="1.0" encoding="UTF-8"?>
<!DOCTYPE svg PUBLIC "-//W3C//DTD SVG 1.1//EN" "http://www.w3.org/Graphics/SVG/1.1/DTD/svg11.dtd">
<svg xmlns="http://www.w3.org/2000/svg" style="background: transparent; background-color: transparent; color-scheme: light dark;" xmlns:xlink="http://www.w3.org/1999/xlink" version="1.1" width="243px" height="168px" viewBox="-0.5 -0.5 243 168"><defs><style xmlns="http://www.w3.org/1999/xhtml" id="MJX-SVG-styles">&#xa;mjx-container[jax="SVG"] {&#xa;  direction: ltr;&#xa;}&#xa;&#xa;mjx-container[jax="SVG"] &gt; svg {&#xa;  overflow: visible;&#xa;  min-height: 1px;&#xa;  min-width: 1px;&#xa;}&#xa;&#xa;mjx-container[jax="SVG"] &gt; svg a {&#xa;  fill: blue;&#xa;  stroke: blue;&#xa;}&#xa;&#xa;mjx-container[jax="SVG"][display="true"] {&#xa;  display: block;&#xa;  text-align: center;&#xa;  margin: 1em 0;&#xa;}&#xa;&#xa;mjx-container[jax="SVG"][display="true"][width="full"] {&#xa;  display: flex;&#xa;}&#xa;&#xa;mjx-container[jax="SVG"][justify="left"] {&#xa;  text-align: left;&#xa;}&#xa;&#xa;mjx-container[jax="SVG"][justify="right"] {&#xa;  text-align: right;&#xa;}&#xa;&#xa;g[data-mml-node="merror"] &gt; g {&#xa;  fill: red;&#xa;  stroke: red;&#xa;}&#xa;&#xa;g[data-mml-node="merror"] &gt; rect[data-background] {&#xa;  fill: yellow;&#xa;  stroke: none;&#xa;}&#xa;&#xa;g[data-mml-node="mtable"] &gt; line[data-line], svg[data-table] &gt; g &gt; line[data-line] {&#xa;  stroke-width: 70px;&#xa;  fill: none;&#xa;}&#xa;&#xa;g[data-mml-node="mtable"] &gt; rect[data-frame], svg[data-table] &gt; g &gt; rect[data-frame] {&#xa;  stroke-width: 70px;&#xa;  fill: none;&#xa;}&#xa;&#xa;g[data-mml-node="mtable"] &gt; .mjx-dashed, svg[data-table] &gt; g &gt; .mjx-dashed {&#xa;  stroke-dasharray: 140;&#xa;}&#xa;&#xa;g[data-mml-node="mtable"] &gt; .mjx-dotted, svg[data-table] &gt; g &gt; .mjx-dotted {&#xa;  stroke-linecap: round;&#xa;  stroke-dasharray: 0,140;&#xa;}&#xa;&#xa;g[data-mml-node="mtable"] &gt; g &gt; svg {&#xa;  overflow: visible;&#xa;}&#xa;&#xa;[jax="SVG"] mjx-tool {&#xa;  display: inline-block;&#xa;  position: relative;&#xa;  width: 0;&#xa;  height: 0;&#xa;}&#xa;&#xa;[jax="SVG"] mjx-tool &gt; mjx-tip {&#xa;  position: absolute;&#xa;  top: 0;&#xa;  left: 0;&#xa;}&#xa;&#xa;mjx-tool &gt; mjx-tip {&#xa;  display: inline-block;&#xa;  padding: .2em;&#xa;  border: 1px solid #888;&#xa;  font-size: 70%;&#xa;  background-color: #F8F8F8;&#xa;  color: black;&#xa;  box-shadow: 2px 2px 5px #AAAAAA;&#xa;}&#xa;&#xa;g[data-mml-node="maction"][data-toggle] {&#xa;  cursor: pointer;&#xa;}&#xa;&#xa;mjx-status {&#xa;  display: block;&#xa;  position: fixed;&#xa;  left: 1em;&#xa;  bottom: 1em;&#xa;  min-width: 25%;&#xa;  padding: .2em .4em;&#xa;  border: 1px solid #888;&#xa;  font-size: 90%;&#xa;  background-color: #F8F8F8;&#xa;  color: black;&#xa;}&#xa;&#xa;foreignObject[data-mjx-xml] {&#xa;  font-family: initial;&#xa;  line-height: normal;&#xa;  overflow: visible;&#xa;}&#xa;&#xa;mjx-container[jax="SVG"] path[data-c], mjx-container[jax="SVG"] use[data-c] {&#xa;  stroke-width: 3;&#xa;}&#xa;</style></defs><g><g data-cell-id="0"><g data-cell-id="1"><g data-cell-id="Z8R6JoJZcFVmLk-wv_UT-12"/><g data-cell-id="Z8R6JoJZcFVmLk-wv_UT-14"/><g data-cell-id="Z8R6JoJZcFVmLk-wv_UT-15"/><g data-cell-id="Z8R6JoJZcFVmLk-wv_UT-16"/><g data-cell-id="Z8R6JoJZcFVmLk-wv_UT-17"/><g data-cell-id="Z8R6JoJZcFVmLk-wv_UT-19"/><g data-cell-id="Z8R6JoJZcFVmLk-wv_UT-20"/><g data-cell-id="Z8R6JoJZcFVmLk-wv_UT-23"/><g data-cell-id="Z8R6JoJZcFVmLk-wv_UT-24"/><g data-cell-id="YbuxfLUFG9ZF1NKhfG9Y-2"/><g data-cell-id="YbuxfLUFG9ZF1NKhfG9Y-1"/><g data-cell-id="YbuxfLUFG9ZF1NKhfG9Y-3"/><g data-cell-id="YbuxfLUFG9ZF1NKhfG9Y-4"/><g data-cell-id="YbuxfLUFG9ZF1NKhfG9Y-5"/><g data-cell-id="YbuxfLUFG9ZF1NKhfG9Y-6"/><g data-cell-id="YbuxfLUFG9ZF1NKhfG9Y-11"/><g data-cell-id="YbuxfLUFG9ZF1NKhfG9Y-12"/><g data-cell-id="YbuxfLUFG9ZF1NKhfG9Y-13"/><g data-cell-id="YbuxfLUFG9ZF1NKhfG9Y-20"><g><ellipse cx="20" cy="25" rx="20" ry="20" fill="none" stroke="#b92938" pointer-events="all" style="stroke: light-dark(rgb(185, 41, 56), rgb(255, 147, 160));"/></g><g><g transform="translate(-0.5 -0.5)"><switch><foreignObject style="overflow: visible; text-align: left;" pointer-events="none" width="100%" height="100%" requiredFeatures="http://www.w3.org/TR/SVG11/feature#Extensibility"><div xmlns="http://www.w3.org/1999/xhtml" style="display: flex; align-items: unsafe center; justify-content: unsafe center; width: 38px; height: 1px; padding-top: 25px; margin-left: 1px;"><div style="box-sizing: border-box; font-size: 0; text-align: center; color: #000000; "><div style="display: inline-block; font-size: 16px; font-family: &quot;Helvetica&quot;; color: light-dark(#000000, #ffffff); line-height: 1.2; pointer-events: all; white-space: normal; word-wrap: normal; "><mjx-container class="MathJax" jax="SVG" display="true"><svg xmlns="http://www.w3.org/2000/svg" width="1.131ex" height="1.557ex" role="img" focusable="false" viewBox="0 -666 500 688" xmlns:xlink="http://www.w3.org/1999/xlink" style="vertical-align: -0.05ex;"><defs><path id="MJX-41-TEX-N-30" d="M96 585Q152 666 249 666Q297 666 345 640T423 548Q460 465 460 320Q460 165 417 83Q397 41 362 16T301 -15T250 -22Q224 -22 198 -16T137 16T82 83Q39 165 39 320Q39 494 96 585ZM321 597Q291 629 250 629Q208 629 178 597Q153 571 145 525T137 333Q137 175 145 125T181 46Q209 16 250 16Q290 16 318 46Q347 76 354 130T362 333Q362 478 354 524T321 597Z"/></defs><g stroke="currentColor" fill="currentColor" stroke-width="0" transform="scale(1,-1)"><g data-mml-node="math"><g data-mml-node="mn"><use data-c="30" xlink:href="#MJX-41-TEX-N-30"/></g></g></g></svg></mjx-container></div></div></div></foreignObject><text x="20" y="30" fill="light-dark(#000000, #ffffff)" font-family="&quot;Helvetica&quot;" font-size="16px" text-anchor="middle">$$ 0...</text></switch></g></g></g><g data-cell-id="YbuxfLUFG9ZF1NKhfG9Y-23"><g><ellipse cx="100" cy="25" rx="20" ry="20" fill="none" stroke="#b92938" pointer-events="all" style="stroke: light-dark(rgb(185, 41, 56), rgb(255, 147, 160));"/></g><g><g transform="translate(-0.5 -0.5)"><switch><foreignObject style="overflow: visible; text-align: left;" pointer-events="none" width="100%" height="100%" requiredFeatures="http://www.w3.org/TR/SVG11/feature#Extensibility"><div xmlns="http://www.w3.org/1999/xhtml" style="display: flex; align-items: unsafe center; justify-content: unsafe center; width: 38px; height: 1px; padding-top: 25px; margin-left: 81px;"><div style="box-sizing: border-box; font-size: 0; text-align: center; color: #000000; "><div style="display: inline-block; font-size: 16px; font-family: &quot;Helvetica&quot;; color: light-dark(#000000, #ffffff); line-height: 1.2; pointer-events: all; white-space: normal; word-wrap: normal; "><mjx-container class="MathJax" jax="SVG" display="true"><svg xmlns="http://www.w3.org/2000/svg" width="1.131ex" height="1.507ex" role="img" focusable="false" viewBox="0 -666 500 666" xmlns:xlink="http://www.w3.org/1999/xlink" style="vertical-align: 0px;"><defs><path id="MJX-42-TEX-N-31" d="M213 578L200 573Q186 568 160 563T102 556H83V602H102Q149 604 189 617T245 641T273 663Q275 666 285 666Q294 666 302 660V361L303 61Q310 54 315 52T339 48T401 46H427V0H416Q395 3 257 3Q121 3 100 0H88V46H114Q136 46 152 46T177 47T193 50T201 52T207 57T213 61V578Z"/></defs><g stroke="currentColor" fill="currentColor" stroke-width="0" transform="scale(1,-1)"><g data-mml-node="math"><g data-mml-node="mn"><use data-c="31" xlink:href="#MJX-42-TEX-N-31"/></g></g></g></svg></mjx-container></div></div></div></foreignObject><text x="100" y="30" fill="light-dark(#000000, #ffffff)" font-family="&quot;Helvetica&quot;" font-size="16px" text-anchor="middle">$$ 1...</text></switch></g></g></g><g data-cell-id="YbuxfLUFG9ZF1NKhfG9Y-24"><g><ellipse cx="20" cy="105" rx="20" ry="20" fill="none" stroke="#b92938" pointer-events="all" style="stroke: light-dark(rgb(185, 41, 56), rgb(255, 147, 160));"/></g><g><g transform="translate(-0.5 -0.5)"><switch><foreignObject style="overflow: visible; text-align: left;" pointer-events="none" width="100%" height="100%" requiredFeatures="http://www.w3.org/TR/SVG11/feature#Extensibility"><div xmlns="http://www.w3.org/1999/xhtml" style="display: flex; align-items: unsafe center; justify-content: unsafe center; width: 38px; height: 1px; padding-top: 105px; margin-left: 1px;"><div style="box-sizing: border-box; font-size: 0; text-align: center; color: #000000; "><div style="display: inline-block; font-size: 16px; font-family: &quot;Helvetica&quot;; color: light-dark(#000000, #ffffff); line-height: 1.2; pointer-events: all; white-space: normal; word-wrap: normal; "><mjx-container class="MathJax" jax="SVG" display="true"><svg xmlns="http://www.w3.org/2000/svg" width="1.131ex" height="1.554ex" role="img" focusable="false" viewBox="0 -665 500 687" xmlns:xlink="http://www.w3.org/1999/xlink" style="vertical-align: -0.05ex;"><defs><path id="MJX-43-TEX-N-33" d="M127 463Q100 463 85 480T69 524Q69 579 117 622T233 665Q268 665 277 664Q351 652 390 611T430 522Q430 470 396 421T302 350L299 348Q299 347 308 345T337 336T375 315Q457 262 457 175Q457 96 395 37T238 -22Q158 -22 100 21T42 130Q42 158 60 175T105 193Q133 193 151 175T169 130Q169 119 166 110T159 94T148 82T136 74T126 70T118 67L114 66Q165 21 238 21Q293 21 321 74Q338 107 338 175V195Q338 290 274 322Q259 328 213 329L171 330L168 332Q166 335 166 348Q166 366 174 366Q202 366 232 371Q266 376 294 413T322 525V533Q322 590 287 612Q265 626 240 626Q208 626 181 615T143 592T132 580H135Q138 579 143 578T153 573T165 566T175 555T183 540T186 520Q186 498 172 481T127 463Z"/></defs><g stroke="currentColor" fill="currentColor" stroke-width="0" transform="scale(1,-1)"><g data-mml-node="math"><g data-mml-node="mn"><use data-c="33" xlink:href="#MJX-43-TEX-N-33"/></g></g></g></svg></mjx-container></div></div></div></foreignObject><text x="20" y="110" fill="light-dark(#000000, #ffffff)" font-family="&quot;Helvetica&quot;" font-size="16px" text-anchor="middle">$$ 3...</text></switch></g></g></g><g data-cell-id="YbuxfLUFG9ZF1NKhfG9Y-25"><g><ellipse cx="100" cy="105" rx="20" ry="20" fill="none" stroke="#b92938" pointer-events="all" style="stroke: light-dark(rgb(185, 41, 56), rgb(255, 147, 160));"/></g><g><g transform="translate(-0.5 -0.5)"><switch><foreignObject style="overflow: visible; text-align: left;" pointer-events="none" width="100%" height="100%" requiredFeatures="http://www.w3.org/TR/SVG11/feature#Extensibility"><div xmlns="http://www.w3.org/1999/xhtml" style="display: flex; align-items: unsafe center; justify-content: unsafe center; width: 38px; height: 1px; padding-top: 105px; margin-left: 81px;"><div style="box-sizing: border-box; font-size: 0; text-align: center; color: #000000; "><div style="display: inline-block; font-size: 16px; font-family: &quot;Helvetica&quot;; color: light-dark(#000000, #ffffff); line-height: 1.2; pointer-events: all; white-space: normal; word-wrap: normal; "><mjx-container class="MathJax" jax="SVG" display="true"><svg xmlns="http://www.w3.org/2000/svg" width="1.131ex" height="1.532ex" role="img" focusable="false" viewBox="0 -677 500 677" xmlns:xlink="http://www.w3.org/1999/xlink" style="vertical-align: 0px;"><defs><path id="MJX-44-TEX-N-34" d="M462 0Q444 3 333 3Q217 3 199 0H190V46H221Q241 46 248 46T265 48T279 53T286 61Q287 63 287 115V165H28V211L179 442Q332 674 334 675Q336 677 355 677H373L379 671V211H471V165H379V114Q379 73 379 66T385 54Q393 47 442 46H471V0H462ZM293 211V545L74 212L183 211H293Z"/></defs><g stroke="currentColor" fill="currentColor" stroke-width="0" transform="scale(1,-1)"><g data-mml-node="math"><g data-mml-node="mn"><use data-c="34" xlink:href="#MJX-44-TEX-N-34"/></g></g></g></svg></mjx-container></div></div></div></foreignObject><text x="100" y="110" fill="light-dark(#000000, #ffffff)" font-family="&quot;Helvetica&quot;" font-size="16px" text-anchor="middle">$$ 4...</text></switch></g></g></g><g data-cell-id="YbuxfLUFG9ZF1NKhfG9Y-26"><g><ellipse cx="180" cy="25" rx="20" ry="20" fill="none" stroke="#b92938" pointer-events="all" style="stroke: light-dark(rgb(185, 41, 56), rgb(255, 147, 160));"/></g><g><g transform="translate(-0.5 -0.5)"><switch><foreignObject style="overflow: visible; text-align: left;" pointer-events="none" width="100%" height="100%" requiredFeatures="http://www.w3.org/TR/SVG11/feature#Extensibility"><div xmlns="http://www.w3.org/1999/xhtml" style="display: flex; align-items: unsafe center; justify-content: unsafe center; width: 38px; height: 1px; padding-top: 25px; margin-left: 161px;"><div style="box-sizing: border-box; font-size: 0; text-align: center; color: #000000; "><div style="display: inline-block; font-size: 16px; font-family: &quot;Helvetica&quot;; color: light-dark(#000000, #ffffff); line-height: 1.2; pointer-events: all; white-space: normal; word-wrap: normal; "><mjx-container class="MathJax" jax="SVG" display="true"><svg xmlns="http://www.w3.org/2000/svg" width="1.131ex" height="1.507ex" role="img" focusable="false" viewBox="0 -666 500 666" xmlns:xlink="http://www.w3.org/1999/xlink" style="vertical-align: 0px;"><defs><path id="MJX-45-TEX-N-32" d="M109 429Q82 429 66 447T50 491Q50 562 103 614T235 666Q326 666 387 610T449 465Q449 422 429 383T381 315T301 241Q265 210 201 149L142 93L218 92Q375 92 385 97Q392 99 409 186V189H449V186Q448 183 436 95T421 3V0H50V19V31Q50 38 56 46T86 81Q115 113 136 137Q145 147 170 174T204 211T233 244T261 278T284 308T305 340T320 369T333 401T340 431T343 464Q343 527 309 573T212 619Q179 619 154 602T119 569T109 550Q109 549 114 549Q132 549 151 535T170 489Q170 464 154 447T109 429Z"/></defs><g stroke="currentColor" fill="currentColor" stroke-width="0" transform="scale(1,-1)"><g data-mml-node="math"><g data-mml-node="mn"><use data-c="32" xlink:href="#MJX-45-TEX-N-32"/></g></g></g></svg></mjx-container></div></div></div></foreignObject><text x="180" y="30" fill="light-dark(#000000, #ffffff)" font-family="&quot;Helvetica&quot;" font-size="16px" text-anchor="middle">$$ 2...</text></switch></g></g></g><g data-cell-id="YbuxfLUFG9ZF1NKhfG9Y-28"><g><path d="M 40 25 L 71.88 25" fill="none" stroke="#343131" stroke-miterlimit="10" pointer-events="stroke" style="stroke: light-dark(rgb(52, 49, 49), rgb(197, 194, 194));"/><path d="M 78.88 25 L 71.88 28.5 L 71.88 21.5 Z" fill="#343131" stroke="#343131" stroke-miterlimit="10" pointer-events="all" style="fill: light-dark(rgb(52, 49, 49), rgb(197, 194, 194)); stroke: light-dark(rgb(52, 49, 49), rgb(197, 194, 194));"/></g></g><g data-cell-id="YbuxfLUFG9ZF1NKhfG9Y-32"><g><path d="M 120 25 L 151.88 25" fill="none" stroke="#343131" stroke-miterlimit="10" pointer-events="stroke" style="stroke: light-dark(rgb(52, 49, 49), rgb(197, 194, 194));"/><path d="M 158.88 25 L 151.88 28.5 L 151.88 21.5 Z" fill="#343131" stroke="#343131" stroke-miterlimit="10" pointer-events="all" style="fill: light-dark(rgb(52, 49, 49), rgb(197, 194, 194)); stroke: light-dark(rgb(52, 49, 49), rgb(197, 194, 194));"/></g></g><g data-cell-id="YbuxfLUFG9ZF1NKhfG9Y-33"><g><path d="M 160 105 L 120 105" fill="none" stroke="#343131" stroke-miterlimit="10" pointer-events="stroke" style="stroke: light-dark(rgb(52, 49, 49), rgb(197, 194, 194));"/></g></g><g data-cell-id="YbuxfLUFG9ZF1NKhfG9Y-34"><g><ellipse cx="180" cy="105" rx="20" ry="20" fill="none" stroke="#b92938" pointer-events="all" style="stroke: light-dark(rgb(185, 41, 56), rgb(255, 147, 160));"/></g></g><g data-cell-id="YbuxfLUFG9ZF1NKhfG9Y-36"><g><path d="M 180 45 L 180 85" fill="none" stroke="#343131" stroke-miterlimit="10" pointer-events="stroke" style="stroke: light-dark(rgb(52, 49, 49), rgb(197, 194, 194));"/></g></g><g data-cell-id="YbuxfLUFG9ZF1NKhfG9Y-37"><g><path d="M 200 25 L 240 25" fill="none" stroke="#343131" stroke-miterlimit="10" stroke-dasharray="3 3" pointer-events="stroke" style="stroke: light-dark(rgb(52, 49, 49), rgb(197, 194, 194));"/></g></g><g data-cell-id="YbuxfLUFG9ZF1NKhfG9Y-38"><g><path d="M 240 105 L 200 105" fill="none" stroke="#343131" stroke-miterlimit="10" stroke-dasharray="3 3" pointer-events="stroke" style="stroke: light-dark(rgb(52, 49, 49), rgb(197, 194, 194));"/></g></g><g data-cell-id="YbuxfLUFG9ZF1NKhfG9Y-39"><g><path d="M 180 165 L 180 125" fill="none" stroke="#343131" stroke-miterlimit="10" stroke-dasharray="3 3" pointer-events="stroke" style="stroke: light-dark(rgb(52, 49, 49), rgb(197, 194, 194));"/></g></g><g data-cell-id="YbuxfLUFG9ZF1NKhfG9Y-40"><g><path d="M 100 165 L 100 125" fill="none" stroke="#343131" stroke-miterlimit="10" stroke-dasharray="3 3" pointer-events="stroke" style="stroke: light-dark(rgb(52, 49, 49), rgb(197, 194, 194));"/></g></g><g data-cell-id="YbuxfLUFG9ZF1NKhfG9Y-41"><g><path d="M 20 165 L 20 125" fill="none" stroke="#343131" stroke-miterlimit="10" stroke-dasharray="3 3" pointer-events="stroke" style="stroke: light-dark(rgb(52, 49, 49), rgb(197, 194, 194));"/></g></g><g data-cell-id="YbuxfLUFG9ZF1NKhfG9Y-43"><g><path d="M 20 45 L 20 76.88" fill="none" stroke="#343131" stroke-miterlimit="10" pointer-events="stroke" style="stroke: light-dark(rgb(52, 49, 49), rgb(197, 194, 194));"/><path d="M 20 83.88 L 16.5 76.88 L 23.5 76.88 Z" fill="#343131" stroke="#343131" stroke-miterlimit="10" pointer-events="all" style="fill: light-dark(rgb(52, 49, 49), rgb(197, 194, 194)); stroke: light-dark(rgb(52, 49, 49), rgb(197, 194, 194));"/></g></g><g data-cell-id="YbuxfLUFG9ZF1NKhfG9Y-44"><g><path d="M 40 104.58 L 71.88 104.58" fill="none" stroke="#343131" stroke-miterlimit="10" pointer-events="stroke" style="stroke: light-dark(rgb(52, 49, 49), rgb(197, 194, 194));"/><path d="M 78.88 104.58 L 71.88 108.08 L 71.88 101.08 Z" fill="#343131" stroke="#343131" stroke-miterlimit="10" pointer-events="all" style="fill: light-dark(rgb(52, 49, 49), rgb(197, 194, 194)); stroke: light-dark(rgb(52, 49, 49), rgb(197, 194, 194));"/></g></g><g data-cell-id="YbuxfLUFG9ZF1NKhfG9Y-45"><g><path d="M 100 45 L 100 76.88" fill="none" stroke="#343131" stroke-miterlimit="10" pointer-events="stroke" style="stroke: light-dark(rgb(52, 49, 49), rgb(197, 194, 194));"/><path d="M 100 83.88 L 96.5 76.88 L 103.5 76.88 Z" fill="#343131" stroke="#343131" stroke-miterlimit="10" pointer-events="all" style="fill: light-dark(rgb(52, 49, 49), rgb(197, 194, 194)); stroke: light-dark(rgb(52, 49, 49), rgb(197, 194, 194));"/></g></g></g></g></g></svg>